<svg xmlns="http://www.w3.org/2000/svg" viewBox="0 0 512 512">
  <defs>
    <linearGradient id="bg" x1="0%" y1="0%" x2="100%" y2="100%">
      <stop offset="0%" stop-color="#FF6B35"/>
      <stop offset="100%" stop-color="#FF9D00"/>
    </linearGradient>
  </defs>

  <!-- Background -->
  <rect width="512" height="512" rx="108" fill="url(#bg)"/>

  <!-- D letter — main white solid shape (using even-odd fill to cut out center) -->
  <path fill-rule="evenodd" fill="white"
        d="M118,92 L118,420 L250,420
           C385,420 424,338 424,256
           C424,174 385,92 250,92 Z
           M170,144 L246,144
           C346,144 372,198 372,256
           C372,314 346,368 246,368
           L170,368 Z"/>

  <!-- Voice waveform bars — inside the D hollow, coral-tinted -->
  <rect x="210" y="222" width="16" height="68"  rx="8" fill="#FF6B35"/>
  <rect x="235" y="196" width="16" height="120" rx="8" fill="#FF6B35"/>
  <rect x="260" y="172" width="16" height="168" rx="8" fill="#FF6B35"/>
  <rect x="285" y="198" width="16" height="116" rx="8" fill="#FF6B35"/>
  <rect x="310" y="224" width="16" height="64"  rx="8" fill="#FF6B35"/>
</svg>
